<svg width="448" height="365" viewBox="0 0 448 365" fill="none" xmlns="http://www.w3.org/2000/svg">
<g clip-path="url(#clip0)">
<path d="M131.314 343.962C133.024 345.586 135.124 346.743 137.41 347.32C139.697 347.897 142.093 347.876 144.369 347.258C150.202 345.602 154.161 340.339 157.675 335.397L168.072 320.781L159.31 322.388C153.008 323.543 146.551 324.756 141.064 328.063C135.576 331.369 131.181 337.272 131.529 343.669" fill="#E6E6E6"/>
<path d="M123.17 363.65C124.707 358.41 126.252 353.098 128.965 348.323C131.375 344.082 134.667 340.361 139.011 338.047C141.315 336.823 143.814 336.009 146.398 335.644C147.071 335.549 147.181 336.597 146.511 336.693C142.038 337.332 137.884 339.375 134.647 342.527C131.059 346.038 128.705 350.565 126.965 355.223C125.912 358.04 125.062 360.926 124.216 363.811C124.191 363.947 124.114 364.069 124.003 364.151C123.891 364.233 123.752 364.269 123.614 364.252C123.476 364.23 123.352 364.155 123.27 364.042C123.187 363.929 123.152 363.788 123.173 363.65L123.17 363.65Z" fill="#F2F2F2"/>
<path d="M292.367 152.614C293.366 152.373 294.405 152.354 295.411 152.559C296.418 152.763 297.368 153.186 298.193 153.797C299.019 154.408 299.701 155.193 300.19 156.096C300.68 156.999 300.966 157.999 301.027 159.024L325.065 165.782L315.257 174.278L293.934 166.558C292.204 166.547 290.539 165.902 289.253 164.745C287.967 163.589 287.15 162 286.957 160.282C286.764 158.563 287.208 156.833 288.205 155.42C289.202 154.006 290.683 153.008 292.367 152.614L292.367 152.614Z" fill="#FFB7B7"/>
<path d="M354.137 357.312L347.13 357.311L343.797 330.283L354.139 330.284L354.137 357.312Z" fill="#FFB7B7"/>
<path d="M355.924 364.104L333.331 364.104V363.818C333.331 361.485 334.258 359.249 335.907 357.599C337.556 355.95 339.793 355.024 342.125 355.023H342.125L355.924 355.024L355.924 364.104Z" fill="#DDDDDD"/>
<path d="M395.195 357.312L388.188 357.311L384.854 330.283L395.195 330.284L395.195 357.312Z" fill="#FFB7B7"/>
<path d="M396.981 364.104L374.389 364.104V363.818C374.389 361.485 375.315 359.249 376.964 357.599C378.614 355.95 380.85 355.024 383.182 355.023H383.183L396.982 355.024L396.981 364.104Z" fill="#DDDDDD"/>
<path d="M348.321 201.66L338 273.157L340.572 348.487L356.07 349.722L360.917 282.165L373.254 244.496L380.507 298.193L380.805 348.487L396.81 349.722L402.391 243.984L398.286 198L348.321 201.66Z" fill="#515151"/>
<path d="M378.264 106.456C387.282 106.456 394.592 99.1447 394.592 90.1262C394.592 81.1078 387.282 73.7969 378.264 73.7969C369.247 73.7969 361.937 81.1078 361.937 90.1262C361.937 99.1447 369.247 106.456 378.264 106.456Z" fill="#FFB7B7"/>
<path d="M368.2 115.338L350.175 206.157C350.175 206.157 380.523 214.868 393.818 206.826C407.114 198.784 401.156 173.959 401.156 173.959L398.721 131.716L394.221 121.034L390.404 112.216L368.2 115.338Z" fill="#CBCBCB"/>
<path d="M362.924 179.803L369.151 113.574L364.172 117.21L346.76 122.865L345.568 169.493L333.389 230.809C333.389 230.809 342.095 247.798 352.884 219.691L362.924 179.803Z" fill="#2F2E41"/>
<path d="M355.139 129.839L346.76 122.865L327.927 163.78L306.911 159.176L305.918 171.589L336.367 183.64L357.117 154.751L355.139 129.839Z" fill="#2F2E41"/>
<path d="M387.738 165.307L390.085 111.406L398.722 118.095L414.145 122.394L411.884 165.307L415.138 231.894L398.968 237.016L394.429 195L387.738 165.307Z" fill="#2F2E41"/>
<path d="M388.776 208.697C388.957 207.686 389.357 206.727 389.949 205.887C390.541 205.047 391.309 204.347 392.201 203.837C393.092 203.326 394.084 203.017 395.108 202.932C396.132 202.846 397.162 202.986 398.125 203.342L413.973 184.044L417.81 196.44L402.173 212.866C401.468 214.445 400.209 215.711 398.633 216.424C397.057 217.137 395.274 217.246 393.623 216.733C391.972 216.219 390.566 215.117 389.673 213.636C388.779 212.155 388.46 210.398 388.776 208.697V208.697Z" fill="#FFB7B7"/>
<path d="M403.818 128.377L414.144 122.394L440.128 173.71L414.795 208.891L400.346 197.337L417.891 174.455L401.9 149.878L403.818 128.377Z" fill="#2F2E41"/>
<path d="M393.621 77.072L394.413 75.4787L390.43 73.4996C390.43 73.4996 386.036 66.3497 378.085 68.359C370.134 70.3683 366.557 71.5708 366.557 71.5708L362.584 73.57L364.578 75.5541L361.001 76.7567L363.391 77.9441L360.61 79.5425L362.107 87.7362C362.107 87.7362 364.593 81.5216 369.373 83.8965C374.152 86.2714 382.895 82.6688 382.895 82.6688L390.49 97.3694C390.49 97.3694 392.057 92.2161 394.851 93.5902C394.851 93.5902 401.988 82.2227 393.621 77.072Z" fill="#2F2E41"/>
<g filter="url(#filter0_d)">
<path d="M294.44 101.029H294.336L234.457 126.6L152.53 161.587C152.21 161.722 151.866 161.792 151.519 161.794C151.172 161.795 150.828 161.729 150.506 161.597L65.9816 126.527L4.6315 101.071L4.53779 101.029H4.43335C3.46534 101.03 2.53729 101.415 1.8528 102.1C1.16832 102.785 0.783305 103.713 0.782227 104.681V263.26C0.783306 264.228 1.16832 265.156 1.8528 265.841C2.53729 266.526 3.46534 266.911 4.43335 266.912H294.44C295.408 266.911 296.337 266.526 297.021 265.841C297.706 265.156 298.091 264.228 298.092 263.26V104.681C298.091 103.713 297.706 102.785 297.021 102.1C296.337 101.415 295.408 101.03 294.44 101.029V101.029Z" fill="white"/>
</g>
<path d="M294.701 102.072C294.595 102.072 294.491 102.04 294.403 101.979L150.151 1.50862C149.712 1.20428 149.191 1.04164 148.657 1.04255C148.122 1.04346 147.601 1.20788 147.163 1.5137L3.9506 101.978C3.83732 102.057 3.69721 102.088 3.56106 102.064C3.42492 102.04 3.30386 101.963 3.22447 101.85C3.14509 101.737 3.11387 101.597 3.13768 101.46C3.16149 101.324 3.23837 101.203 3.35145 101.124L146.564 0.659447C147.178 0.231361 147.907 0.00123399 148.655 4.94873e-06C149.403 -0.00122409 150.133 0.226502 150.748 0.65257L294.999 101.123C295.091 101.186 295.159 101.277 295.195 101.382C295.231 101.487 295.232 101.601 295.199 101.707C295.166 101.813 295.099 101.906 295.01 101.971C294.92 102.037 294.812 102.072 294.701 102.072L294.701 102.072Z" fill="#3F3D56"/>
<path d="M12.1338 105.634L148.798 4.33984L286.499 112.842L155.839 190.305L84.9024 174.135L12.1338 105.634Z" fill="#E6E6E6"/>
<path d="M90.8907 238.151H23.3752C22.9606 238.152 22.5498 238.072 22.1664 237.914C21.783 237.756 21.4344 237.524 21.1406 237.232C20.8468 236.939 20.6136 236.592 20.4542 236.209C20.2949 235.826 20.2125 235.416 20.2119 235.001C20.2113 234.586 20.2924 234.176 20.4507 233.792C20.6089 233.409 20.8411 233.061 21.134 232.768C21.4269 232.474 21.7748 232.241 22.1578 232.082C22.5407 231.924 22.9513 231.842 23.3659 231.842H90.8907C91.3053 231.841 91.716 231.921 92.0994 232.079C92.4829 232.237 92.8314 232.468 93.1252 232.761C93.419 233.053 93.6522 233.401 93.8116 233.784C93.9709 234.167 94.0533 234.577 94.0539 234.992C94.0545 235.406 93.9734 235.817 93.8152 236.2C93.6569 236.583 93.4247 236.932 93.1318 237.225C92.8389 237.519 92.491 237.751 92.108 237.91C91.7251 238.069 91.3146 238.151 90.9 238.151H90.8907Z" fill="#C4C4C4"/>
<path d="M47.5982 224.588H23.3752C22.9606 224.59 22.5498 224.509 22.1664 224.351C21.783 224.194 21.4344 223.962 21.1406 223.669C20.8468 223.377 20.6136 223.029 20.4542 222.646C20.2949 222.264 20.2125 221.853 20.2119 221.439C20.2113 221.024 20.2924 220.613 20.4507 220.23C20.6089 219.847 20.8411 219.498 21.134 219.205C21.4269 218.912 21.7749 218.679 22.1578 218.52C22.5408 218.361 22.9513 218.279 23.3659 218.279H47.5982C48.434 218.279 49.2357 218.611 49.8272 219.201C50.4187 219.792 50.7517 220.593 50.7529 221.429C50.7542 222.265 50.4236 223.067 49.8339 223.66C49.2441 224.252 48.4434 224.586 47.6076 224.588H47.5982Z" fill="#C4C4C4"/>
<path d="M150.72 162.054C150.207 162.054 149.699 161.955 149.223 161.761L64.9385 126.785V17.3058C64.9396 16.3377 65.3246 15.4096 66.0091 14.7251C66.6936 14.0405 67.6216 13.6554 68.5896 13.6543H230.284C231.252 13.6554 232.18 14.0405 232.865 14.7251C233.549 15.4096 233.934 16.3377 233.935 17.3058V126.862L233.777 126.929L152.262 161.744C151.774 161.949 151.25 162.054 150.72 162.054Z" fill="#A4A3C2"/>
<path d="M293.658 101.029H293.554L233.675 126.6L151.748 161.587C151.428 161.721 151.084 161.792 150.737 161.794C150.39 161.795 150.045 161.729 149.724 161.597L65.1994 126.527L3.84933 101.071L3.75562 101.029H3.65112C2.68311 101.03 1.75506 101.415 1.07058 102.1C0.386093 102.785 0.00107656 103.713 0 104.681V263.26C0.00107656 264.228 0.386093 265.156 1.07058 265.841C1.75506 266.526 2.68311 266.911 3.65112 266.912H293.658C294.626 266.911 295.554 266.526 296.239 265.841C296.923 265.156 297.308 264.228 297.309 263.26V104.681C297.308 103.713 296.923 102.785 296.239 102.1C295.554 101.415 294.626 101.03 293.658 101.029ZM296.266 263.26C296.266 263.952 295.991 264.615 295.502 265.104C295.013 265.593 294.35 265.868 293.658 265.868H3.65112C2.95953 265.868 2.29634 265.593 1.8073 265.104C1.31827 264.615 1.0434 263.952 1.04313 263.26V104.681C1.04408 104.006 1.30568 103.358 1.77325 102.872C2.24082 102.386 2.87816 102.1 3.55205 102.073L65.1994 127.654L149.323 162.562C150.233 162.933 151.253 162.927 152.16 162.547L233.675 127.732L293.763 102.073C294.435 102.102 295.071 102.389 295.537 102.875C296.004 103.361 296.265 104.007 296.266 104.681L296.266 263.26Z" fill="#3F3D56"/>
<path d="M137.599 54.5777H80.2231C79.1177 54.5758 78.0582 54.1353 77.2772 53.3529C76.4963 52.5705 76.0576 51.5101 76.0576 50.4046C76.0576 49.2991 76.4963 48.2387 77.2772 47.4563C78.0582 46.6739 79.1177 46.2334 80.2231 46.2314H137.599C138.704 46.2334 139.764 46.6739 140.545 47.4563C141.325 48.2387 141.764 49.2991 141.764 50.4046C141.764 51.5101 141.325 52.5705 140.545 53.3529C139.764 54.1353 138.704 54.5758 137.599 54.5777Z" fill="white"/>
<path d="M107.867 36.8414H80.2226C79.1159 36.8414 78.0545 36.4017 77.272 35.6191C76.4894 34.8365 76.0498 33.775 76.0498 32.6683C76.0498 31.5615 76.4894 30.5 77.272 29.7174C78.0545 28.9348 79.1159 28.4951 80.2226 28.4951H107.867C108.974 28.4951 110.035 28.9348 110.818 29.7174C111.6 30.5 112.04 31.5615 112.04 32.6683C112.04 33.775 111.6 34.8365 110.818 35.6191C110.035 36.4017 108.974 36.8414 107.867 36.8414Z" fill="white"/>
<path d="M192.35 96.3092H104.722C103.615 96.3092 102.554 95.8695 101.771 95.0869C100.988 94.3043 100.549 93.2428 100.549 92.136C100.549 91.0292 100.988 89.9678 101.771 89.1852C102.554 88.4025 103.615 87.9629 104.722 87.9629H192.35C193.456 87.9629 194.518 88.4025 195.3 89.1852C196.083 89.9678 196.522 91.0292 196.522 92.136C196.522 93.2428 196.083 94.3043 195.3 95.0869C194.518 95.8695 193.456 96.3092 192.35 96.3092Z" fill="white"/>
<path d="M192.349 115.61H104.721C104.172 115.611 103.629 115.504 103.122 115.294C102.615 115.085 102.154 114.778 101.766 114.39C101.378 114.003 101.07 113.542 100.859 113.035C100.649 112.529 100.541 111.985 100.541 111.437C100.541 110.888 100.649 110.345 100.859 109.838C101.07 109.331 101.378 108.871 101.766 108.483C102.154 108.096 102.615 107.789 103.122 107.579C103.629 107.37 104.172 107.263 104.721 107.264H192.349C192.898 107.263 193.441 107.37 193.948 107.579C194.455 107.789 194.916 108.096 195.304 108.483C195.693 108.871 196.001 109.331 196.211 109.838C196.421 110.345 196.529 110.888 196.529 111.437C196.529 111.985 196.421 112.529 196.211 113.035C196.001 113.542 195.693 114.003 195.304 114.39C194.916 114.778 194.455 115.085 193.948 115.294C193.441 115.504 192.898 115.611 192.349 115.61Z" fill="white"/>
<path d="M447.364 364.764H279.957C279.788 364.764 279.626 364.697 279.507 364.578C279.387 364.459 279.32 364.297 279.32 364.128C279.32 363.959 279.387 363.797 279.507 363.678C279.626 363.558 279.788 363.491 279.957 363.491H447.364C447.533 363.491 447.695 363.558 447.814 363.678C447.933 363.797 448 363.959 448 364.128C448 364.297 447.933 364.459 447.814 364.578C447.695 364.697 447.533 364.764 447.364 364.764Z" fill="#CBCBCB"/>
<path d="M155.197 364.764H93.4539C93.2851 364.764 93.1232 364.697 93.0038 364.578C92.8845 364.459 92.8174 364.297 92.8174 364.128C92.8174 363.959 92.8845 363.797 93.0038 363.678C93.1232 363.558 93.2851 363.491 93.4539 363.491H155.197C155.366 363.491 155.528 363.558 155.647 363.678C155.767 363.797 155.834 363.959 155.834 364.128C155.834 364.297 155.767 364.459 155.647 364.578C155.528 364.697 155.366 364.764 155.197 364.764Z" fill="#CBCBCB"/>
<path d="M116.156 345.082C118.514 345.028 120.818 344.367 122.846 343.164C124.875 341.961 126.559 340.256 127.737 338.213C130.705 332.925 129.801 326.401 128.808 320.419L125.874 302.724L120.794 310.042C117.141 315.305 113.418 320.719 111.859 326.933C110.299 333.148 111.345 340.433 116.102 344.723" fill="#E6E6E6"/>
<path d="M124.264 364.785C121.659 359.986 119.009 355.13 117.566 349.831C116.284 345.125 115.994 340.164 117.443 335.461C118.213 332.968 119.412 330.628 120.986 328.547C121.396 328.005 122.214 328.671 121.805 329.211C119.085 332.819 117.58 337.197 117.508 341.715C117.439 346.735 118.962 351.604 121.013 356.134C122.252 358.874 123.684 361.52 125.119 364.162C125.197 364.277 125.229 364.417 125.208 364.554C125.186 364.691 125.113 364.815 125.003 364.9C124.89 364.981 124.749 365.015 124.611 364.993C124.473 364.972 124.349 364.896 124.266 364.784L124.264 364.785Z" fill="#F2F2F2"/>
</g>
<defs>
<filter id="filter0_d" x="-3.21777" y="101.029" width="305.309" height="173.882" filterUnits="userSpaceOnUse" color-interpolation-filters="sRGB">
<feFlood flood-opacity="0" result="BackgroundImageFix"/>
<feColorMatrix in="SourceAlpha" type="matrix" values="0 0 0 0 0 0 0 0 0 0 0 0 0 0 0 0 0 0 127 0" result="hardAlpha"/>
<feOffset dy="4"/>
<feGaussianBlur stdDeviation="2"/>
<feComposite in2="hardAlpha" operator="out"/>
<feColorMatrix type="matrix" values="0 0 0 0 0 0 0 0 0 0 0 0 0 0 0 0 0 0 0.25 0"/>
<feBlend mode="normal" in2="BackgroundImageFix" result="effect1_dropShadow"/>
<feBlend mode="normal" in="SourceGraphic" in2="effect1_dropShadow" result="shape"/>
</filter>
<clipPath id="clip0">
<rect width="448" height="365" fill="white"/>
</clipPath>
</defs>
</svg>
