<svg width="48" height="47" viewBox="0 0 48 47" fill="none" xmlns="http://www.w3.org/2000/svg">
<path d="M18.1287 41.2863V46.2224C17.4765 48.3437 10.0574 46.1408 2.55689 35.2895C-2.07388 26.1843 0.627401 17.0002 2.55689 13.5463C4.48638 9.22209 11.3945 0.459513 23.591 0.00261951C33.3418 -0.127922 39.258 4.65315 40.9972 7.06C44.5573 10.2147 50.6827 19.6328 46.7042 32.0668C44.3562 40.7478 36.1599 45.4201 32.3553 46.6711C31.8389 47.011 30.6677 47.3809 30.1133 46.1408V44.8761C30.1133 39.4913 30.4964 36.905 28.605 34.7184C30.6024 34.6368 36.3909 33.0458 37.573 30.1903C37.8176 29.9455 38.7552 28.3545 39.1628 26.0293C39.5542 24.9523 39.4618 22.3714 39.3667 21.2156C39.2715 20.4949 38.6737 18.5231 37.0431 16.4018C37.2062 16.206 37.3556 15.314 37.41 14.8925C37.5051 13.9406 37.4915 11.6371 36.6762 10.038C35.7794 9.71163 34.9642 9.99719 33.5374 10.6091C32.396 11.0986 30.7791 12.0913 30.1133 12.5264C29.9502 12.3904 28.8414 12.0451 25.7108 11.7513C22.5801 11.4576 19.3516 12.1457 18.1287 12.5264C18.0607 12.3768 17.3705 11.8248 15.1529 10.8131C12.9354 9.80138 11.8646 9.87481 11.6065 10.038C11.4978 10.0652 11.2151 10.5601 10.9542 12.3225C10.6934 14.0848 11.0629 15.8579 11.2804 16.5242C10.8455 16.7554 9.79655 17.9276 9.07911 20.7668C8.87529 21.8275 8.58994 23.7448 9.07911 25.8661C9.56827 27.9874 9.89439 31.2917 15.2345 33.6578C16.5389 34.2452 18.7945 34.5824 19.7592 34.6776C19.0934 35.1943 17.8352 36.5705 18.1287 37.9412C15.2752 38.9202 16.2128 38.3491 14.8268 38.5123C13.8485 38.4715 12.1772 37.4924 11.4026 36.2278C11.2396 35.004 8.95682 33.9433 9.07911 33.7802C9.2014 33.617 6.42946 33.1275 6.42946 33.7802C6.42946 34.4329 6.42946 34.1473 7.77466 35.2895C9.11987 36.4318 8.99758 36.7173 10.6689 39.5729C12.006 41.8574 16.1992 41.667 18.1287 41.2863Z" fill="white"/>
</svg>
