<svg width="57" height="52" viewBox="0 0 57 52" fill="none" xmlns="http://www.w3.org/2000/svg">
<path d="M50.1788 31.0508C49.3788 29.8508 46.8454 30.5508 45.6788 31.0508C45.6788 35.0508 37.6787 36.5508 34.6787 31.0508C33.1787 27.0508 34.6787 22.0508 38.1787 18.5508C40.6787 17.5508 42.1787 18.0508 45.6788 21.0503C47.6788 24.2499 50.5121 22.3835 51.6787 21.0503V15.5508C51.6787 13.1508 49.012 10.2174 47.6787 9.05078C42.3454 6.88396 30.6787 2.15031 26.6787 0.550311C22.6787 -1.04969 18.6788 1.21698 17.1788 2.55031C12.3454 7.71698 2.27878 18.6503 0.678777 21.0503C-0.921223 23.4503 0.678777 28.0503 1.67878 30.0503C5.67878 36.0503 14.3788 48.5503 17.1788 50.5503C19.9788 52.5503 23.6788 51.3836 25.1788 50.5503C31.3454 49.0503 44.2788 45.8503 46.6788 45.0503C49.0788 44.2503 50.0121 41.3836 50.1788 40.0503C50.5121 37.5505 50.9788 32.2508 50.1788 31.0508Z" fill="white"/>
<circle cx="54.5" cy="28.5" r="2.5" fill="white"/>
</svg>
